<svg id="svg" xmlns="http://www.w3.org/2000/svg" xmlns:xlink="http://www.w3.org/1999/xlink" width="400" height="400" viewBox="0, 0, 400,400"><g id="svgg"><path id="path0" d="M22.711 29.380 C 12.054 31.711,2.974 40.763,0.919 51.107 C -0.401 57.747,-0.401 343.034,0.919 349.674 C 3.038 360.339,12.029 369.085,23.316 371.459 C 31.949 373.275,368.832 373.275,377.465 371.459 C 385.550 369.758,391.174 365.953,395.900 358.984 L 399.609 353.516 399.609 200.360 L 399.609 47.203 395.886 41.766 C 391.130 34.820,385.492 31.011,377.465 29.322 C 369.250 27.594,30.626 27.650,22.711 29.380 M56.589 53.118 C 65.249 57.359,66.047 69.460,58.069 75.546 C 54.218 78.483,47.039 78.684,43.219 75.961 C 29.575 66.236,41.561 45.758,56.589 53.118 M99.558 53.118 C 108.409 57.453,108.942 69.966,100.531 75.961 C 97.007 78.473,89.700 78.465,86.164 75.944 C 72.370 66.112,84.362 45.676,99.558 53.118 M143.360 53.125 C 151.986 57.301,152.503 70.101,144.281 75.961 C 140.757 78.473,133.450 78.465,129.914 75.944 C 116.087 66.089,128.083 45.730,143.360 53.125 M371.094 64.844 L 371.094 71.094 271.875 71.094 L 172.656 71.094 172.656 64.844 L 172.656 58.594 271.875 58.594 L 371.094 58.594 371.094 64.844 M371.094 222.266 L 371.094 342.969 200.391 342.969 L 29.688 342.969 29.688 222.266 L 29.688 101.563 200.391 101.563 L 371.094 101.563 371.094 222.266 " stroke="none" fill="#000000" fill-rule="evenodd"></path></g></svg>