<svg id="svg" xmlns="http://www.w3.org/2000/svg" xmlns:xlink="http://www.w3.org/1999/xlink" width="400" height="354.3333333333333" viewBox="0, 0, 400,354.3333333333333"><g id="svgg"><path id="path0" d="M44.500 22.212 C 30.682 25.061,21.469 33.753,18.863 46.403 C 18.103 50.089,18.047 286.456,18.805 290.387 C 21.113 302.363,30.793 312.069,42.833 314.481 C 47.210 315.358,358.903 315.104,361.833 314.222 C 373.091 310.830,381.275 302.260,383.883 291.130 C 384.813 287.164,384.851 49.531,383.922 45.921 C 380.962 34.409,373.383 26.470,361.978 22.935 L 359.500 22.167 202.333 22.121 C 115.892 22.096,44.867 22.137,44.500 22.212 M356.180 47.293 C 357.824 48.040,359.191 49.602,359.652 51.260 C 360.138 53.009,360.132 284.010,359.647 285.759 C 359.212 287.326,357.524 289.288,356.099 289.883 C 354.111 290.714,48.035 290.535,46.403 289.702 C 44.989 288.980,44.307 288.282,43.540 286.767 C 43.045 285.789,43.000 275.886,43.000 168.415 L 43.000 51.131 43.957 49.621 C 44.579 48.641,45.425 47.859,46.374 47.390 L 47.833 46.667 201.333 46.674 C 349.535 46.681,354.880 46.702,356.180 47.293 M99.333 71.012 C 72.791 74.165,58.355 104.374,72.596 126.960 C 89.574 153.887,130.277 148.145,139.136 117.573 C 146.391 92.539,125.347 67.921,99.333 71.012 M207.417 150.083 L 158.668 198.832 143.416 183.583 L 128.165 168.334 97.582 198.918 L 67.000 229.501 67.000 247.917 L 67.000 266.333 201.333 266.333 L 335.667 266.333 335.667 223.416 L 335.667 180.499 296.083 140.916 C 274.312 119.146,256.424 101.333,256.333 101.333 C 256.241 101.333,234.229 123.270,207.417 150.083 " stroke="none" fill="#000000" fill-rule="evenodd"></path></g></svg>